<?xml version="1.0" encoding="UTF-8" standalone="no"?>
<!-- Generator: Adobe Illustrator 16.0.0, SVG Export Plug-In . SVG Version: 6.00 Build 0)  -->

<svg
   xmlns:dc="http://purl.org/dc/elements/1.1/"
   xmlns:cc="http://creativecommons.org/ns#"
   xmlns:rdf="http://www.w3.org/1999/02/22-rdf-syntax-ns#"
   xmlns:svg="http://www.w3.org/2000/svg"
   xmlns="http://www.w3.org/2000/svg"
   xmlns:sodipodi="http://sodipodi.sourceforge.net/DTD/sodipodi-0.dtd"
   xmlns:inkscape="http://www.inkscape.org/namespaces/inkscape"
   version="1.1"
   id="Layer_1"
   x="0px"
   y="0px"
   width="320"
   height="320"
   viewBox="0 0 320 320.00002"
   enable-background="new 0 0 420.94 198.43"
   xml:space="preserve"
   inkscape:version="0.91 r13725"
   sodipodi:docname="IR_Icon_InGame_Sequencer.svg"
   inkscape:export-filename="C:\Users\Chris\My Cubby\KSP Files\Infernal Robotics Logo Files\In-Game Logos\icon_seq_button.png"
   inkscape:export-xdpi="10.6875"
   inkscape:export-ydpi="10.6875"><metadata
     id="metadata31"><rdf:RDF><cc:Work
         rdf:about=""><dc:format>image/svg+xml</dc:format><dc:type
           rdf:resource="http://purl.org/dc/dcmitype/StillImage" /><dc:title /></cc:Work></rdf:RDF></metadata><defs
     id="defs29" /><sodipodi:namedview
     pagecolor="#ffffff"
     bordercolor="#666666"
     borderopacity="1"
     objecttolerance="10"
     gridtolerance="10"
     guidetolerance="10"
     inkscape:pageopacity="0"
     inkscape:pageshadow="2"
     inkscape:window-width="1920"
     inkscape:window-height="1005"
     id="namedview27"
     showgrid="true"
     fit-margin-top="0"
     fit-margin-left="0"
     fit-margin-right="0"
     fit-margin-bottom="0"
     inkscape:zoom="2.0000001"
     inkscape:cx="220.03175"
     inkscape:cy="154.66842"
     inkscape:window-x="-9"
     inkscape:window-y="-9"
     inkscape:window-maximized="1"
     inkscape:current-layer="Layer_1"
     showguides="false"
     inkscape:snap-page="true"
     inkscape:snap-bbox="true"
     inkscape:guide-bbox="true"
     inkscape:snap-object-midpoints="true"
     inkscape:object-paths="false"
     inkscape:snap-grids="true"
     inkscape:snap-intersection-paths="false"
     inkscape:snap-smooth-nodes="false"
     inkscape:object-nodes="true"
     inkscape:snap-midpoints="true"
     inkscape:snap-bbox-midpoints="false"><inkscape:grid
       type="xygrid"
       id="grid4729"
       originx="0"
       originy="0" /><sodipodi:guide
       position="123,108.00001"
       orientation="1,0"
       id="guide4154" /><sodipodi:guide
       position="128,100.00001"
       orientation="1,0"
       id="guide4737" /><sodipodi:guide
       position="118,99.000006"
       orientation="1,0"
       id="guide4739" /><sodipodi:guide
       position="150,89.000006"
       orientation="1,0"
       id="guide4741" /><sodipodi:guide
       position="145,106.00001"
       orientation="0,1"
       id="guide4743" /></sodipodi:namedview><rect
     style="fill:#7f7f7f;fill-opacity:1;fill-rule:nonzero;stroke:none"
     id="rect5196"
     width="320.00003"
     height="320.00031"
     x="0"
     y="-0.0002746582"
     ry="0" /><path
     style="fill:#ffffff;fill-opacity:1;stroke:none;stroke-width:10;stroke-linecap:round;stroke-linejoin:round;stroke-miterlimit:4;stroke-dasharray:none;stroke-opacity:1"
     d="M 170 175 C 161.68999 175 155 181.68999 155 190 L 155 280 C 155 288.31001 161.68999 295 170 295 L 280 295 C 288.31001 295 295 288.31001 295 280 L 295 190 C 295 181.68999 288.31001 175 280 175 L 170 175 z M 210 183.5 A 16.499992 16.499992 0 0 1 226.5 200 A 16.499992 16.499992 0 0 1 220.78125 212.46484 L 238.4082 253.5918 A 16.499996 16.499996 0 0 1 240 253.5 A 16.499996 16.499996 0 0 1 246.4375 254.80859 L 255.97852 243.67578 A 16.499994 16.499994 0 0 1 253.5 235 A 16.499994 16.499994 0 0 1 270 218.5 A 16.499994 16.499994 0 0 1 286.5 235 A 16.499994 16.499994 0 0 1 270 251.5 A 16.499994 16.499994 0 0 1 263.5625 250.19141 L 254.02148 261.32422 A 16.499996 16.499996 0 0 1 256.5 270 A 16.499996 16.499996 0 0 1 240 286.5 A 16.499996 16.499996 0 0 1 223.5 270 A 16.499996 16.499996 0 0 1 229.21875 257.53516 L 211.5918 216.4082 A 16.499992 16.499992 0 0 1 210 216.5 A 16.499992 16.499992 0 0 1 204.57617 215.56445 L 193.42188 230.4375 A 16.499998 16.499998 0 0 1 196.5 240 A 16.499998 16.499998 0 0 1 180 256.5 A 16.499998 16.499998 0 0 1 163.5 240 A 16.499998 16.499998 0 0 1 180 223.5 A 16.499998 16.499998 0 0 1 185.42383 224.43555 L 196.57812 209.5625 A 16.499992 16.499992 0 0 1 193.5 200 A 16.499992 16.499992 0 0 1 210 183.5 z "
     transform="translate(-1.5258791e-5,0)"
     id="rect4723" /><path
     style="fill:#ffc300;fill-opacity:1;stroke:none"
     d="m 144.66704,28.715058 c -8.47532,0 -15.37264,6.897309 -15.37264,15.372642 0,8.475333 6.87219,15.220436 15.37264,15.220436 8.50046,0 15.37264,-6.745103 15.37264,-15.220436 0,-8.475333 -6.89732,-15.372642 -15.37264,-15.372642 z m 0,8.371241 c 3.80624,0 7.0014,3.042953 7.0014,6.849196 0,3.806244 -3.19516,6.849196 -7.0014,6.849196 -3.80624,0 -6.8492,-3.042952 -6.8492,-6.849196 0,-3.806243 3.04296,-6.849196 6.8492,-6.849196 z"
     id="path5153"
     inkscape:connector-curvature="0" /><path
     style="fill:#ffc300;fill-opacity:1;stroke:none"
     d="m 48.169476,91.271056 c -10.491142,0 -19.025548,8.534403 -19.025548,19.025544 0,10.49114 8.534406,19.02554 19.025548,19.02554 10.491141,0 18.87334,-8.51302 18.87334,-19.02554 0,-10.512506 -8.382199,-19.025544 -18.87334,-19.025544 z m 0,10.045484 c 4.930632,0 8.827853,3.89723 8.827853,8.82785 0,4.93064 -3.897221,8.98007 -8.827853,8.98007 -4.930632,0 -8.980058,-4.04943 -8.980058,-8.98007 0,-4.93062 4.049426,-8.82785 8.980058,-8.82785 z"
     id="path5131"
     inkscape:connector-curvature="0" /><path
     style="fill:#ffc300;fill-opacity:1;stroke:none"
     d="m 123.20622,170.87394 c -10.4868,0 -19.02554,8.51976 -19.02554,19.02554 0,5.94873 -0.12003,10.27223 0,13.24178 0.12003,2.96955 0.60698,4.23778 1.06543,4.71833 0.45845,0.48055 1.62884,1.07805 4.56613,1.21764 2.93729,0.13959 7.33206,-0.0543 13.39398,-0.15221 6.50717,-0.10342 11.06368,0.0314 14.15501,0 3.09133,-0.0314 4.37351,-0.41941 4.56613,-0.60881 0.19262,-0.18942 0.45745,-1.22438 0.45662,-4.26173 -7.1e-4,-3.03734 -0.14237,-7.691 -0.1522,-14.155 -0.0129,-10.50543 -8.52858,-19.02554 -19.02556,-19.02554 z m 0,9.13225 c 5.40406,0 9.89328,4.48923 9.89328,9.89329 0,5.40405 -4.48922,9.74108 -9.89328,9.74108 -5.40405,0 -9.74107,-4.33703 -9.74107,-9.74108 0,-5.40406 4.33702,-9.89329 9.74107,-9.89329 z"
     id="path5118"
     inkscape:connector-curvature="0" /><path
     style="fill:#ffffff;fill-opacity:1"
     d="m 71.761152,113.03628 c -1.278366,11.21541 -10.294246,20.0633 -21.61302,21.0042 l 49.162005,55.70679 c 0.08338,-13.07139 10.825973,-23.74387 23.896083,-23.74387 0.82066,0 1.63526,0.0702 2.43527,0.1522 L 71.761152,113.03628 Z"
     id="polygon5"
     inkscape:connector-curvature="0" /><path
     style="fill:#ffffff;fill-opacity:1"
     d="M 124.57606,45.000926 59.584803,89.292397 c 7.036186,3.88283 11.902674,11.283873 12.328553,19.786563 L 139.03548,63.113246 c -8.02578,-2.386551 -14.04457,-9.42884 -14.45942,-18.11232 z"
     id="rect7"
     inkscape:connector-curvature="0" /><path
     style="fill:#ffffff;fill-opacity:1"
     d="m 164.60581,48.197218 c -1.25522,5.829438 -5.23064,10.636893 -10.34989,13.393983 l 7.61021,6.240379 11.11092,-12.937371 -8.37124,-6.696991 z"
     id="rect9"
     inkscape:connector-curvature="0" /><path
     sodipodi:type="inkscape:offset"
     inkscape:radius="-0.38341302"
     inkscape:original="M 35.3125 8.9375 C 35.1475 8.7965 34.79725 8.938 34.53125 9.25 L 31.21875 13.125 C 30.95275 13.436 30.86625 13.82775 31.03125 13.96875 L 32.125 14.875 C 32.289 15.016 32.64125 14.8735 32.90625 14.5625 L 36.21875 10.6875 C 36.48475 10.3755 36.54 10.016 36.375 9.875 L 35.3125 8.9375 z "
     style="fill:#ffffff;fill-opacity:1;stroke:none"
     id="path5166"
     d="m 35.0625,9.2285156 c 0.06752,0.057698 0.106014,0.023918 0.03906,0.050781 -0.06695,0.026863 -0.181633,0.1041975 -0.279296,0.21875 a 0.38345136,0.38345136 0 0 1 0,0.00195 l -3.3125,3.875 c -0.09466,0.110669 -0.154417,0.239636 -0.171875,0.318359 -0.01746,0.07872 0.01934,0.0493 -0.05664,-0.01563 l 1.087891,0.902344 a 0.38345136,0.38345136 0 0 1 0.0059,0.0039 c -0.06932,-0.05959 -0.108545,-0.02367 -0.04102,-0.05078 0.06753,-0.02711 0.184393,-0.10508 0.28125,-0.21875 a 0.38345136,0.38345136 0 0 1 0,-0.002 l 3.3125,-3.873047 0,-0.002 c 0.09336,-0.110119 0.142929,-0.226068 0.154297,-0.289062 0.01143,-0.06333 -0.01295,-0.03021 0.04297,0.01758 a 0.38345136,0.38345136 0 0 1 -0.0039,-0.0039 L 35.0625,9.2285156 Z"
     transform="matrix(4.8705395,0,0,4.8705395,8.4441377,8.319679)" /><path
     style="fill:#ffffff;fill-opacity:1;stroke:none"
     d="m 185.30561,62.504427 -4.26172,5.022745 13.24177,2.891883 a 1.1979906,1.1979906 0 0 1 0.30441,0.152203 l 16.43808,8.37124 1.21763,-1.826452 -14.45942,-12.328553 -12.32855,-2.283066 -0.1522,0 z m -8.98007,10.654306 -4.56612,5.327153 4.71833,9.741084 15.37265,13.54618 1.52203,-1.52204 -11.71973,-14.155001 a 1.1979906,1.1979906 0 0 1 -0.1522,-0.152209 1.1979906,1.1979906 0 0 1 0,-0.152202 l -5.17496,-12.632965 z"
     id="path5175"
     inkscape:connector-curvature="0" /><path
     style="fill:#ffffff;fill-opacity:1;stroke:none;stroke-width:10;stroke-linecap:round;stroke-linejoin:round;stroke-miterlimit:4;stroke-dasharray:none;stroke-opacity:1"
     d="M 118 214 A 31.999992 31.999992 0 0 0 150 246 L 150 236 A 21.999994 21.999994 0 0 1 128 214 L 118 214 z "
     transform="translate(-1.5258791e-5,0)"
     id="path4756" /><circle
     style="fill:#ffc300;fill-opacity:1;stroke:none"
     id="path4169"
     cx="240.00002"
     cy="270.00003"
     r="8.5" /><circle
     style="fill:#ffc300;fill-opacity:1;stroke:none"
     id="path4171"
     cx="210.00002"
     cy="200.00003"
     r="8.5" /><circle
     style="fill:#ffc300;fill-opacity:1;stroke:none"
     id="path4173"
     cx="180"
     cy="240.00003"
     r="8.5" /><circle
     style="fill:#ffc300;fill-opacity:1;stroke:none"
     id="path4173-2"
     cx="270.00003"
     cy="235.00003"
     r="8.500001" /></svg>