<?xml version="1.0" encoding="UTF-8" standalone="no"?>
<!-- Generator: Adobe Illustrator 16.0.0, SVG Export Plug-In . SVG Version: 6.00 Build 0)  -->

<svg
   xmlns:dc="http://purl.org/dc/elements/1.1/"
   xmlns:cc="http://creativecommons.org/ns#"
   xmlns:rdf="http://www.w3.org/1999/02/22-rdf-syntax-ns#"
   xmlns:svg="http://www.w3.org/2000/svg"
   xmlns="http://www.w3.org/2000/svg"
   xmlns:sodipodi="http://sodipodi.sourceforge.net/DTD/sodipodi-0.dtd"
   xmlns:inkscape="http://www.inkscape.org/namespaces/inkscape"
   version="1.1"
   id="Layer_1"
   x="0px"
   y="0px"
   width="46.667"
   height="46.664997"
   viewBox="0 0 46.667 46.664999"
   enable-background="new 0 0 420.94 198.43"
   xml:space="preserve"
   inkscape:version="0.48.4 r9939"
   sodipodi:docname="IR_InkscapeSymbol_Coloured.svg"><metadata
   id="metadata31"><rdf:RDF><cc:Work
       rdf:about=""><dc:format>image/svg+xml</dc:format><dc:type
         rdf:resource="http://purl.org/dc/dcmitype/StillImage" /><dc:title /></cc:Work></rdf:RDF></metadata><defs
   id="defs29" /><sodipodi:namedview
   pagecolor="#ffffff"
   bordercolor="#666666"
   borderopacity="1"
   objecttolerance="10"
   gridtolerance="10"
   guidetolerance="10"
   inkscape:pageopacity="0"
   inkscape:pageshadow="2"
   inkscape:window-width="1920"
   inkscape:window-height="1138"
   id="namedview27"
   showgrid="false"
   fit-margin-top="0"
   fit-margin-left="0"
   fit-margin-right="0"
   fit-margin-bottom="0"
   inkscape:zoom="8.4852814"
   inkscape:cx="11.478"
   inkscape:cy="20.204859"
   inkscape:window-x="-8"
   inkscape:window-y="-8"
   inkscape:window-maximized="1"
   inkscape:current-layer="Layer_1" />
<path
   d="m 46.666991,40.194 c 0,3.574 -2.897,6.471 -6.47,6.471 h -33.727 c -3.572,0 -6.4699999893288,-2.896 -6.4699999893288,-6.471 V 6.47 C -8.9893288e-6,2.896 2.896991,0 6.469991,0 h 33.727 c 3.572,0 6.47,2.896 6.47,6.47 v 33.724 z"
   id="path3"
   inkscape:connector-curvature="0"
   style="fill:#808080" />
<polygon
   points="204.336,103.627 208.724,99.589 224.97,115.566 219.094,120.316 "
   id="polygon5"
   style="fill:#ffc300"
   transform="translate(-197.99201,-80.327)" />
<rect
   x="19.653124"
   y="-19.211056"
   transform="matrix(0.56481297,0.82521895,-0.82521895,0.56481297,0,0)"
   width="4.7838902"
   height="22.172491"
   id="rect7"
   style="fill:#ffc300" />
<rect
   x="-13.739397"
   y="-33.304989"
   transform="matrix(-0.6273986,0.77869827,-0.77869827,-0.6273986,0,0)"
   width="3.4760077"
   height="6.9300151"
   id="rect9"
   style="fill:#ffc300" />
<circle
   stroke-miterlimit="10"
   cx="206.14101"
   cy="101.244"
   r="4.402"
   id="circle11"
   sodipodi:cx="206.14101"
   sodipodi:cy="101.244"
   sodipodi:rx="4.402"
   sodipodi:ry="4.402"
   style="fill:#ffffff;stroke:#808080;stroke-miterlimit:10"
   transform="translate(-197.99201,-80.327)" />
<path
   stroke-miterlimit="10"
   d="m 19.162994,37.273 c 0,-2.434 1.972,-4.404 4.402,-4.404 2.432,0 4.4,1.971 4.403,4.404 0.008,5.252 0.882,4.316 -4.403,4.4 -4.953,0.08 -4.402,0.447 -4.402,-4.4 z"
   id="path13"
   inkscape:connector-curvature="0"
   style="fill:#ffffff;stroke:#808080;stroke-width:1;stroke-miterlimit:10" />
<circle
   stroke-miterlimit="10"
   cx="225.968"
   cy="87.644997"
   r="3.642"
   id="circle15"
   sodipodi:cx="225.968"
   sodipodi:cy="87.644997"
   sodipodi:rx="3.642"
   sodipodi:ry="3.642"
   style="fill:#ffffff;stroke:#808080;stroke-miterlimit:10"
   transform="translate(-197.99201,-80.327)" />
<circle
   cx="206.14101"
   cy="101.244"
   r="1.8329999"
   id="circle17"
   sodipodi:cx="206.14101"
   sodipodi:cy="101.244"
   sodipodi:rx="1.8329999"
   sodipodi:ry="1.8329999"
   style="fill:#ac5400"
   transform="translate(-197.99201,-80.327)" />
<circle
   cx="221.562"
   cy="117.6"
   r="2.0090001"
   id="circle19"
   sodipodi:cx="221.562"
   sodipodi:cy="117.6"
   sodipodi:rx="2.0090001"
   sodipodi:ry="2.0090001"
   style="fill:#ac5400"
   transform="translate(-197.99201,-80.327)" />
<circle
   cx="225.968"
   cy="87.644997"
   r="1.415"
   id="circle21"
   sodipodi:cx="225.968"
   sodipodi:cy="87.644997"
   sodipodi:rx="1.415"
   sodipodi:ry="1.415"
   style="fill:#ac5400"
   transform="translate(-197.99201,-80.327)" />
<polyline
   stroke-miterlimit="10"
   points="234.23,91.148 236.967,91.651   240.187,94.405 239.666,95.11 236.096,93.301 232.929,92.659 232.524,93.169 233.757,96.129 236.299,99.228 235.696,99.855   232.275,96.857 231.152,94.608 "
   id="polyline23"
   style="fill:#f1f2f2;stroke:#808080;stroke-width:0.5;stroke-miterlimit:10"
   transform="translate(-197.99201,-80.327)" />
<path
   stroke-miterlimit="10"
   d="m 36.388994,9.882 c 0.165,0.141 0.084,0.507 -0.182,0.819 l -3.312,3.877 c -0.265,0.311 -0.615,0.449 -0.779,0.308 l -1.091,-0.931 c -0.165,-0.141 -0.083,-0.507 0.183,-0.818 l 3.31,-3.877 c 0.266,-0.312 0.616,-0.449 0.781,-0.308 l 1.09,0.93 z"
   id="path25"
   inkscape:connector-curvature="0"
   style="fill:#ffffff;stroke:#808080;stroke-width:0.75;stroke-miterlimit:10" />
</svg>