<?xml version="1.0" encoding="UTF-8" standalone="no"?>
<!-- Generator: Adobe Illustrator 16.0.0, SVG Export Plug-In . SVG Version: 6.00 Build 0)  -->

<svg
   xmlns:dc="http://purl.org/dc/elements/1.1/"
   xmlns:cc="http://creativecommons.org/ns#"
   xmlns:rdf="http://www.w3.org/1999/02/22-rdf-syntax-ns#"
   xmlns:svg="http://www.w3.org/2000/svg"
   xmlns="http://www.w3.org/2000/svg"
   xmlns:sodipodi="http://sodipodi.sourceforge.net/DTD/sodipodi-0.dtd"
   xmlns:inkscape="http://www.inkscape.org/namespaces/inkscape"
   version="1.1"
   id="Layer_1"
   x="0px"
   y="0px"
   width="320"
   height="320"
   viewBox="0 0 320 320.00002"
   enable-background="new 0 0 420.94 198.43"
   xml:space="preserve"
   inkscape:version="0.91 r13725"
   sodipodi:docname="IR_Icon_InGame_Controller.svg"
   inkscape:export-filename="C:\Users\Chris\My Cubby\KSP Files\Infernal Robotics Logo Files\In-Game Logos\icon_button.png"
   inkscape:export-xdpi="10.68749"
   inkscape:export-ydpi="10.68749"><metadata
     id="metadata31"><rdf:RDF><cc:Work
         rdf:about=""><dc:format>image/svg+xml</dc:format><dc:type
           rdf:resource="http://purl.org/dc/dcmitype/StillImage" /><dc:title /></cc:Work></rdf:RDF></metadata><defs
     id="defs29" /><sodipodi:namedview
     pagecolor="#ffffff"
     bordercolor="#666666"
     borderopacity="1"
     objecttolerance="10"
     gridtolerance="10"
     guidetolerance="10"
     inkscape:pageopacity="0"
     inkscape:pageshadow="2"
     inkscape:window-width="1920"
     inkscape:window-height="1005"
     id="namedview27"
     showgrid="true"
     fit-margin-top="0"
     fit-margin-left="0"
     fit-margin-right="0"
     fit-margin-bottom="0"
     inkscape:zoom="2.0000001"
     inkscape:cx="213.17219"
     inkscape:cy="149.12405"
     inkscape:window-x="-9"
     inkscape:window-y="-9"
     inkscape:window-maximized="1"
     inkscape:current-layer="Layer_1"
     showguides="false"
     inkscape:snap-page="true"
     inkscape:snap-bbox="false"><inkscape:grid
       type="xygrid"
       id="grid4729"
       originx="0"
       originy="0" /></sodipodi:namedview><rect
     style="fill:#7f7f7f;fill-opacity:1;fill-rule:nonzero;stroke:none"
     id="rect5196"
     width="320.00003"
     height="320.00031"
     x="0"
     y="-0.00027465823"
     ry="0" /><path
     style="fill:#ffc300;fill-opacity:1;stroke:none"
     d="m 191.79274,28.715058 c -11.93269,0 -21.64365,9.71095 -21.64365,21.643652 0,11.932701 9.67558,21.429356 21.64365,21.429356 11.96808,0 21.64365,-9.496655 21.64365,-21.429356 0,-11.932702 -9.71096,-21.643652 -21.64365,-21.643652 z m 0,11.786148 c 5.35894,0 9.85751,4.284274 9.85751,9.64321 0,5.358936 -4.49857,9.64321 -9.85751,9.64321 -5.35893,0 -9.64321,-4.284274 -9.64321,-9.64321 0,-5.358936 4.28428,-9.64321 9.64321,-9.64321 z"
     id="path5153"
     inkscape:connector-curvature="0" /><path
     style="fill:#ffc300;fill-opacity:1;stroke:none"
     d="m 55.930627,116.78972 c -14.770826,0 -26.786699,12.01587 -26.786699,26.78669 0,14.77083 12.015873,26.7867 26.786699,26.7867 14.770826,0 26.572401,-11.98577 26.572401,-26.7867 0,-14.8009 -11.801575,-26.78669 -26.572401,-26.78669 z m 0,14.14337 c 6.942,0 12.429026,5.48703 12.429026,12.42903 0,6.942 -5.487026,12.64332 -12.429026,12.64332 -6.942,0 -12.64332,-5.70132 -12.64332,-12.64332 0,-6.942 5.70132,-12.42903 12.64332,-12.42903 z"
     id="path5131"
     inkscape:connector-curvature="0" /><path
     style="fill:#ffc300;fill-opacity:1;stroke:none"
     d="m 161.57735,228.86525 c -14.76472,0 -26.78669,11.99526 -26.78669,26.78669 0,8.37542 -0.169,14.46262 0,18.64354 0.16899,4.18093 0.85459,5.96652 1.50005,6.6431 0.64547,0.67658 2.29329,1.51782 6.42881,1.71435 4.13551,0.19653 10.32304,-0.0764 18.85783,-0.21429 9.16165,-0.14562 15.57691,0.0442 19.9293,0 4.3524,-0.0442 6.15761,-0.59051 6.42881,-0.85718 0.2712,-0.26667 0.64406,-1.72384 0.64288,-6.00022 -0.001,-4.27637 -0.20043,-10.82842 -0.21429,-19.9293 -0.0182,-14.79094 -12.00766,-26.78669 -26.7867,-26.78669 z m 0,12.85761 c 7.60855,0 13.92908,6.32053 13.92908,13.92908 0,7.60855 -6.32053,13.71479 -13.92908,13.71479 -7.60855,0 -13.71479,-6.10624 -13.71479,-13.71479 0,-7.60855 6.10624,-13.92908 13.71479,-13.92908 z"
     id="path5118"
     inkscape:connector-curvature="0" /><path
     style="fill:#ffffff;fill-opacity:1"
     d="m 89.146129,147.4337 c -1.799854,15.79055 -14.49361,28.24778 -30.429686,29.57251 l 69.216817,78.43144 c 0.11742,-18.40365 15.24224,-33.42979 33.64409,-33.42979 1.15543,0 2.30233,0.0988 3.4287,0.21429 L 89.146129,147.4337 Z"
     id="polygon5"
     inkscape:connector-curvature="0" /><path
     style="fill:#ffffff;fill-opacity:1"
     d="M 163.50599,51.644471 72.002644,114.0039 c 9.906479,5.46676 16.758168,15.88693 17.357778,27.85816 L 183.86388,77.145405 C 172.56413,73.785302 164.09006,63.870229 163.50599,51.644471 Z"
     id="rect7"
     inkscape:connector-curvature="0" /><path
     style="fill:#ffffff;fill-opacity:1"
     d="m 219.8652,56.144636 c -1.76727,8.207459 -7.36439,14.976034 -14.57196,18.857833 l 10.71468,8.786036 15.64343,-18.214953 -11.78615,-9.428916 z"
     id="rect9"
     inkscape:connector-curvature="0" /><path
     sodipodi:type="inkscape:offset"
     inkscape:radius="-0.38341302"
     inkscape:original="M 35.3125 8.9375 C 35.1475 8.7965 34.79725 8.938 34.53125 9.25 L 31.21875 13.125 C 30.95275 13.436 30.86625 13.82775 31.03125 13.96875 L 32.125 14.875 C 32.289 15.016 32.64125 14.8735 32.90625 14.5625 L 36.21875 10.6875 C 36.48475 10.3755 36.54 10.016 36.375 9.875 L 35.3125 8.9375 z "
     style="fill:#ffffff;fill-opacity:1;stroke:none"
     id="path5166"
     d="m 35.0625,9.2285156 c 0.06752,0.057698 0.106014,0.023918 0.03906,0.050781 -0.06695,0.026863 -0.181633,0.1041975 -0.279296,0.21875 a 0.38345136,0.38345136 0 0 1 0,0.00195 l -3.3125,3.875 c -0.09466,0.110669 -0.154417,0.239636 -0.171875,0.318359 -0.01746,0.07872 0.01934,0.0493 -0.05664,-0.01563 l 1.087891,0.902344 a 0.38345136,0.38345136 0 0 1 0.0059,0.0039 c -0.06932,-0.05959 -0.108545,-0.02367 -0.04102,-0.05078 0.06753,-0.02711 0.184393,-0.10508 0.28125,-0.21875 a 0.38345136,0.38345136 0 0 1 0,-0.002 l 3.3125,-3.873047 0,-0.002 c 0.09336,-0.110119 0.142929,-0.226068 0.154297,-0.289062 0.01143,-0.06333 -0.01295,-0.03021 0.04297,0.01758 a 0.38345136,0.38345136 0 0 1 -0.0039,-0.0039 L 35.0625,9.2285156 Z"
     transform="matrix(6.8573939,0,0,6.8573939,7.6904297e-6,-2.716016e-4)" /><path
     style="fill:#ffffff;fill-opacity:1;stroke:none"
     d="m 249.00913,76.28823 -6.00022,7.071688 18.64354,4.071578 a 1.6866906,1.6866906 0 0 1 0.42858,0.214293 l 23.14371,11.786146 1.71435,-2.571523 -20.35789,-17.357778 -17.35778,-3.214404 -0.21429,0 z m -12.64333,15.00055 -6.4288,7.500274 6.6431,13.714796 21.64365,19.07212 2.14293,-2.14293 -16.5006,-19.9293 a 1.6866906,1.6866906 0 0 1 -0.21429,-0.2143 1.6866906,1.6866906 0 0 1 0,-0.21429 L 236.3658,91.28878 Z"
     id="path5175"
     inkscape:connector-curvature="0" /></svg>