<?xml version="1.0" encoding="UTF-8" standalone="no"?>
<!-- Generator: Adobe Illustrator 16.0.0, SVG Export Plug-In . SVG Version: 6.00 Build 0)  -->

<svg
   xmlns:dc="http://purl.org/dc/elements/1.1/"
   xmlns:cc="http://creativecommons.org/ns#"
   xmlns:rdf="http://www.w3.org/1999/02/22-rdf-syntax-ns#"
   xmlns:svg="http://www.w3.org/2000/svg"
   xmlns="http://www.w3.org/2000/svg"
   xmlns:sodipodi="http://sodipodi.sourceforge.net/DTD/sodipodi-0.dtd"
   xmlns:inkscape="http://www.inkscape.org/namespaces/inkscape"
   version="1.1"
   id="Layer_1"
   x="0px"
   y="0px"
   width="239.31601"
   height="124.13486"
   viewBox="0 0 239.31601 124.13487"
   enable-background="new 0 0 420.94 198.43"
   xml:space="preserve"
   inkscape:version="0.48.4 r9939"
   sodipodi:docname="IR_InkscapeLogo_Inverse.svg"><metadata
   id="metadata55"><rdf:RDF><cc:Work
       rdf:about=""><dc:format>image/svg+xml</dc:format><dc:type
         rdf:resource="http://purl.org/dc/dcmitype/StillImage" /><dc:title /></cc:Work></rdf:RDF></metadata><defs
   id="defs53" /><sodipodi:namedview
   pagecolor="#ffffff"
   bordercolor="#666666"
   borderopacity="1"
   objecttolerance="10"
   gridtolerance="10"
   guidetolerance="10"
   inkscape:pageopacity="0"
   inkscape:pageshadow="2"
   inkscape:window-width="1920"
   inkscape:window-height="1138"
   id="namedview51"
   showgrid="false"
   inkscape:zoom="5.25169"
   inkscape:cx="135.57636"
   inkscape:cy="54.996918"
   inkscape:window-x="-8"
   inkscape:window-y="-8"
   inkscape:window-maximized="1"
   inkscape:current-layer="Layer_1"
   showguides="false"
   inkscape:guide-bbox="true"
   fit-margin-left="10"
   fit-margin-top="5"
   fit-margin-right="10"
   fit-margin-bottom="5"
   inkscape:snap-global="false"><inkscape:grid
     type="xygrid"
     id="grid3859"
     empspacing="5"
     visible="true"
     enabled="true"
     snapvisiblegridlinesonly="true"
     originx="-109.68399px"
     originy="-21.285129px" /><sodipodi:guide
     orientation="1,0"
     position="9.7061482,35.839339"
     id="guide3861" /><sodipodi:guide
     orientation="1,0"
     position="229.15619,54.271571"
     id="guide3863" /><sodipodi:guide
     orientation="0,1"
     position="92.688139,112.85298"
     id="guide3865" /><sodipodi:guide
     orientation="0,1"
     position="151.26955,77.903843"
     id="guide3867" /><sodipodi:guide
     orientation="0,1"
     position="94.685239,66.254131"
     id="guide3869" /></sodipodi:namedview>
<rect
   style="fill:#000000;fill-opacity:1;fill-rule:nonzero;stroke:none"
   id="rect3885"
   width="240.68452"
   height="135.76582"
   x="0.19036727"
   y="-2.5862498" /><path
   d="m 229.31601,45.196 c 0,3.574 -2.897,6.47 -6.47,6.47 h -33.727 c -3.572,0 -6.47,-2.896 -6.47,-6.47 V 11.47 c 0,-3.5739999 2.897,-6.4699999 6.47,-6.4699999 h 33.727 c 3.572,0 6.47,2.896 6.47,6.4699999 v 33.726 z"
   id="path3"
   inkscape:connector-curvature="0"
   style="fill:#808080" />
<polygon
   points="302.064,77.272 318.311,93.25 312.435,98 297.677,81.311 "
   id="polygon5"
   style="fill:#ffc300"
   transform="translate(-108.68398,-53.01)" />
<rect
   x="126.94035"
   y="-167.10938"
   transform="matrix(0.56481297,0.82521895,-0.82521895,0.56481297,0,0)"
   width="4.7838902"
   height="22.172491"
   id="rect7"
   style="fill:#ffc300" />
<rect
   x="-124.43901"
   y="-178.67047"
   transform="matrix(-0.6273986,0.77869827,-0.77869827,-0.6273986,0,0)"
   width="3.4760077"
   height="6.9300151"
   id="rect9"
   style="fill:#ffc300" />
<circle
   stroke-miterlimit="10"
   cx="299.48099"
   cy="78.927002"
   r="4.402"
   id="circle11"
   sodipodi:cx="299.48099"
   sodipodi:cy="78.927002"
   sodipodi:rx="4.402"
   sodipodi:ry="4.402"
   style="fill:#ffffff;stroke:#808080;stroke-miterlimit:10"
   transform="translate(-108.68398,-53.01)" />
<path
   stroke-miterlimit="10"
   d="m 201.81202,42.272 c 0,-2.433 1.972,-4.404 4.402,-4.404 2.432,0 4.4,1.971 4.403,4.404 0.008,5.252 0.882,4.316 -4.403,4.401 -4.954,0.08 -4.402,0.447 -4.402,-4.401 z"
   id="path13"
   inkscape:connector-curvature="0"
   style="fill:#ffffff;stroke:#808080;stroke-miterlimit:10" />
<circle
   stroke-miterlimit="10"
   cx="319.30899"
   cy="65.328003"
   r="3.642"
   id="circle15"
   sodipodi:cx="319.30899"
   sodipodi:cy="65.328003"
   sodipodi:rx="3.642"
   sodipodi:ry="3.642"
   style="fill:#ffffff;stroke:#808080;stroke-miterlimit:10"
   transform="translate(-108.68398,-53.01)" />
<circle
   cx="299.48099"
   cy="78.927002"
   r="1.8329999"
   id="circle17"
   sodipodi:cx="299.48099"
   sodipodi:cy="78.927002"
   sodipodi:rx="1.8329999"
   sodipodi:ry="1.8329999"
   style="fill:#ac5400"
   transform="translate(-108.68398,-53.01)" />
<circle
   cx="314.90302"
   cy="95.281998"
   r="2.0090001"
   id="circle19"
   sodipodi:cx="314.90302"
   sodipodi:cy="95.281998"
   sodipodi:rx="2.0090001"
   sodipodi:ry="2.0090001"
   style="fill:#ac5400"
   transform="translate(-108.68398,-53.01)" />
<circle
   cx="319.30899"
   cy="65.328003"
   r="1.415"
   id="circle21"
   sodipodi:cx="319.30899"
   sodipodi:cy="65.328003"
   sodipodi:rx="1.415"
   sodipodi:ry="1.415"
   style="fill:#ac5400"
   transform="translate(-108.68398,-53.01)" />
<polyline
   stroke-miterlimit="10"
   points="327.571,68.831 330.308,69.334   333.527,72.088 333.007,72.793 329.437,70.984 326.27,70.342 325.865,70.852 327.098,73.813 329.64,76.911 329.037,77.538   325.616,74.541 324.493,72.291 "
   id="polyline23"
   style="fill:#f1f2f2;stroke:#808080;stroke-width:0.5;stroke-miterlimit:10"
   transform="translate(-108.68398,-53.01)" />
<text
   transform="scale(0.92568893,1.0802765)"
   font-size="48.0222"
   id="text25"
   x="8.6379633"
   y="42.593636"
   style="font-size:47.00268555px;fill:#231f20;font-family:AeroMaticsRegular"><tspan
     style="font-size:47.00268555px;font-style:normal;font-variant:normal;font-weight:normal;font-stretch:normal;text-align:start;line-height:125%;writing-mode:lr-tb;text-anchor:start;fill:#ffffff;fill-opacity:1;font-family:Aero Matics;-inkscape-font-specification:Aero Matics"
     id="tspan3032">INFERNAL</tspan></text>



<text
   font-size="40"
   id="text27"
   style="font-size:37.49305344px;font-style:normal;font-variant:normal;font-weight:300;font-stretch:normal;text-align:start;line-height:125%;writing-mode:lr-tb;text-anchor:start;fill:#808080;font-family:Aero Matics Light;-inkscape-font-specification:'Aero Matics Light, Light'"
   sodipodi:linespacing="125%"
   x="84.591125"
   y="84.046272">ROBOTICS</text>



<text
   id="text29"
   transform="scale(1.0547221,0.94811704)"
   sodipodi:linespacing="125%"
   x="8.6575985"
   y="121.79869"
   style="font-size:13.16006756px;line-height:125%"><tspan
     x="8.6575985"
     y="121.79869"
     font-size="18"
     id="tspan31"
     style="font-size:19.74010277px;font-style:normal;font-variant:normal;font-weight:normal;font-stretch:normal;text-align:start;line-height:125%;writing-mode:lr-tb;text-anchor:start;fill:#231f20;font-family:Aero Matics;-inkscape-font-specification:Aero Matics"><tspan
       style="fill:#ffffff;fill-opacity:1"
       id="tspan3871">Model Rework</tspan><tspan
       style="fill:#b15f10;fill-opacity:1"
       id="tspan3802"> &amp;</tspan><tspan
       style="fill:#ffffff;fill-opacity:1"
       id="tspan3873"> Expansion</tspan></tspan></text>



<path
   stroke-miterlimit="10"
   d="m 219.03802,14.882 c 0.165,0.141 0.084,0.507 -0.182,0.819 l -3.312,3.877 c -0.265,0.311 -0.615,0.449 -0.779,0.308 l -1.091,-0.931 c -0.165,-0.141 -0.083,-0.507 0.183,-0.818 l 3.31,-3.877 c 0.266,-0.312 0.616,-0.449 0.781,-0.308 l 1.09,0.93 z"
   id="path37"
   inkscape:connector-curvature="0"
   style="fill:#ffffff;stroke:#808080;stroke-width:0.75;stroke-miterlimit:10" />
<polygon
   points="176.467,127.25 181.437,127.25 184.625,122.875 179.655,122.875 "
   id="polygon39"
   style="fill:#ffc300"
   transform="matrix(1.2,0,0,1.2,-139.2935,-79.022503)" />
<polygon
   points="166.974,127.25 171.943,127.25 175.131,122.875 170.162,122.875 "
   id="polygon41"
   style="fill:#ffc300"
   transform="matrix(1.2,0,0,1.2,-140.3948,-79.022503)" />
<polygon
   points="165.638,122.875 160.668,122.875 157.48,127.25 162.45,127.25 "
   id="polygon43"
   style="fill:#ffc300"
   transform="matrix(1.2,0,0,1.2,-141.4961,-79.022503)" />
<polygon
   points="156.144,122.875 151.175,122.875 147.987,127.25 152.956,127.25 "
   id="polygon45"
   style="fill:#ffc300"
   transform="matrix(1.2,0,0,1.2,-142.5974,-79.022503)" />
<polygon
   points="138.494,127.25 143.463,127.25 146.651,122.875 141.682,122.875 "
   id="polygon47"
   style="fill:#ffc300"
   transform="matrix(1.2,0,0,1.2,-143.6988,-79.022503)" />
<polygon
   points="137.157,122.875 132.188,122.875 129,127.25 133.969,127.25 "
   id="polygon49"
   style="fill:#ffc300"
   transform="matrix(1.2,0,0,1.2,-144.8,-79.022503)" />
</svg>